<?xml version="1.0" encoding="UTF-8"?>
<svg width="1440px" height="700px" viewBox="0 0 1440 700" version="1.1" xmlns="http://www.w3.org/2000/svg" xmlns:xlink="http://www.w3.org/1999/xlink">
    <!-- Generator: Sketch 47.1 (45422) - http://www.bohemiancoding.com/sketch -->
    <title>Artboard Copy 3</title>
    <desc>Created with Sketch.</desc>
    <defs></defs>
    <g id="Page-1" stroke="none" stroke-width="1" fill="none" fill-rule="evenodd">
        <g id="Artboard-Copy-3" stroke-width="2" stroke="#1E8ECE">
            <g id="Group-Copy-2" transform="translate(219.500000, 326.500000) scale(1, -1) translate(-219.500000, -326.500000) translate(-83.000000, 0.000000)">
                <polygon id="Polygon-Copy-32" points="80.8184086 209.467913 121.09713 232.722844 121.09713 279.232706 80.8184086 302.487637 40.5396868 279.232706 40.5396868 232.722844"></polygon>
                <polygon id="Polygon-Copy-34" points="161.697477 209.467913 201.976198 232.722844 201.976198 279.232706 161.697477 302.487637 121.418755 279.232706 121.418755 232.722844"></polygon>
                <polygon id="Polygon-Copy-17" points="121.519917 0.250732767 161.798639 23.5056636 161.798639 70.0155254 121.519917 93.2704563 81.2411952 70.0155254 81.2411952 23.5056636"></polygon>
                <polygon id="Polygon-Copy-35" points="121.519917 419.718646 161.798639 442.973577 161.798639 489.483438 121.519917 512.738369 81.2411952 489.483438 81.2411952 442.973577"></polygon>
                <polygon id="Polygon-Copy-36" points="121.237598 279.155508 161.51632 302.410439 161.51632 348.920301 121.237598 372.175232 80.9588762 348.920301 80.9588762 302.410439"></polygon>
                <polygon id="Polygon-Copy-18" points="81.0600384 69.9383278 121.33876 93.1932587 121.33876 139.70312 81.0600384 162.958051 40.7813166 139.70312 40.7813166 93.1932587"></polygon>
                <polygon id="Polygon-Copy-37" points="81.0600384 489.406241 121.33876 512.661172 121.33876 559.171033 81.0600384 582.425964 40.7813166 559.171033 40.7813166 512.661172"></polygon>
                <polygon id="Polygon-Copy-38" opacity="0.6" points="161.697477 349.437077 201.976198 372.692008 201.976198 419.20187 161.697477 442.4568 121.418755 419.20187 121.418755 372.692008"></polygon>
                <polygon id="Polygon-Copy-19" points="121.519917 140.219897 161.798639 163.474828 161.798639 209.984689 121.519917 233.23962 81.2411952 209.984689 81.2411952 163.474828"></polygon>
                <polygon id="Polygon-Copy-39" points="121.519917 559.68781 161.798639 582.942741 161.798639 629.452602 121.519917 652.707533 81.2411952 629.452602 81.2411952 582.942741"></polygon>
                <polygon id="Polygon-Copy-40" points="242.31457 209.467913 282.593292 232.722844 282.593292 279.232706 242.31457 302.487637 202.035849 279.232706 202.035849 232.722844"></polygon>
                <polygon id="Polygon-Copy-41" opacity="0.6" points="202.137011 419.718646 242.415733 442.973577 242.415733 489.483438 202.137011 512.738369 161.858289 489.483438 161.858289 442.973577"></polygon>
                <polygon id="Polygon-Copy-42" opacity="0.6" points="201.854692 279.155508 242.133414 302.410439 242.133414 348.920301 201.854692 372.175232 161.57597 348.920301 161.57597 302.410439"></polygon>
                <polygon id="Polygon-Copy-21" opacity="0.6" points="161.677132 69.9383278 201.955854 93.1932587 201.955854 139.70312 161.677132 162.958051 121.39841 139.70312 121.39841 93.1932587"></polygon>
                <polygon id="Polygon-Copy-43" points="161.677132 489.406241 201.955854 512.661172 201.955854 559.171033 161.677132 582.425964 121.39841 559.171033 121.39841 512.661172"></polygon>
                <polygon id="Polygon-Copy-44" points="242.31457 349.437077 282.593292 372.692008 282.593292 419.20187 242.31457 442.4568 202.035849 419.20187 202.035849 372.692008"></polygon>
                <polygon id="Polygon-Copy-22" opacity="0.6" points="202.137011 140.219897 242.415733 163.474828 242.415733 209.984689 202.137011 233.23962 161.858289 209.984689 161.858289 163.474828"></polygon>
                <polygon id="Polygon-Copy-47" opacity="0.4" points="282.754104 419.718646 323.032826 442.973577 323.032826 489.483438 282.754104 512.738369 242.475383 489.483438 242.475383 442.973577"></polygon>
                <polygon id="Polygon-Copy-48" points="282.471785 279.155508 322.750507 302.410439 322.750507 348.920301 282.471785 372.175232 242.193064 348.920301 242.193064 302.410439"></polygon>
                <polygon id="Polygon-Copy-50" opacity="0.4" points="322.931664 349.437077 363.210386 372.692008 363.210386 419.20187 322.931664 442.4568 282.652942 419.20187 282.652942 372.692008"></polygon>
                <polygon id="Polygon-Copy-25" opacity="0.4" points="282.754104 140.219897 323.032826 163.474828 323.032826 209.984689 282.754104 233.23962 242.475383 209.984689 242.475383 163.474828"></polygon>
                <polygon id="Polygon-Copy-54" opacity="0.4" points="363.088879 279.155508 403.367601 302.410439 403.367601 348.920301 363.088879 372.175232 322.810157 348.920301 322.810157 302.410439"></polygon>
                <polygon id="Polygon-Copy-58" opacity="0.4" points="323.092476 209.907492 363.371198 233.162423 363.371198 279.672284 323.092476 302.927215 282.813755 279.672284 282.813755 233.162423"></polygon>
                <polygon id="Polygon-Copy-60" opacity="0.4" points="363.70957 140.219897 403.988292 163.474828 403.988292 209.984689 363.70957 233.23962 323.430848 209.984689 323.430848 163.474828"></polygon>
                <polygon id="Polygon-Copy-61" opacity="0.4" points="201.795042 0.250732767 242.073763 23.5056636 242.073763 70.0155254 201.795042 93.2704563 161.51632 70.0155254 161.51632 23.5056636"></polygon>
                <polygon id="Polygon-Copy-56" opacity="0.3" points="403.548758 349.437077 443.82748 372.692008 443.82748 419.20187 403.548758 442.4568 363.270036 419.20187 363.270036 372.692008"></polygon>
                <polygon id="Polygon-Copy-66" opacity="0.1" points="243.430848 69.9383278 283.70957 93.1932587 283.70957 139.70312 243.430848 162.958051 203.152126 139.70312 203.152126 93.1932587"></polygon>
                <polygon id="Polygon-Copy-70" opacity="0.05" points="564.267014 209.907492 604.545735 233.162423 604.545735 279.672284 564.267014 302.927215 523.988292 279.672284 523.988292 233.162423"></polygon>
                <polygon id="Polygon-Copy-65" opacity="0.05" points="444.267014 140.219897 484.545735 163.474828 484.545735 209.984689 444.267014 233.23962 403.988292 209.984689 403.988292 163.474828"></polygon>
                <polygon id="Polygon-Copy-72" opacity="0.05" points="403.988292 69.9383278 444.267014 93.1932587 444.267014 139.70312 403.988292 162.958051 363.70957 139.70312 363.70957 93.1932587"></polygon>
                <polygon id="Polygon-Copy-74" opacity="0.05" points="323.430848 69.9383278 363.70957 93.1932587 363.70957 139.70312 323.430848 162.958051 283.152126 139.70312 283.152126 93.1932587"></polygon>
                <polygon id="Polygon-Copy-75" opacity="0.05" points="282.352485 0.250732767 322.631207 23.5056636 322.631207 70.0155254 282.352485 93.2704563 242.073763 70.0155254 242.073763 23.5056636"></polygon>
                <polygon id="Polygon-Copy-67" opacity="0.2" points="483.988292 209.907492 524.267014 233.162423 524.267014 279.672284 483.988292 302.927215 443.70957 279.672284 443.70957 233.162423"></polygon>
                <polygon id="Polygon-Copy-68" opacity="0.1" points="444.267014 280.189061 484.545735 303.443991 484.545735 349.953853 444.267014 373.208784 403.988292 349.953853 403.988292 303.443991"></polygon>
                <polygon id="Polygon-Copy-71" opacity="0.1" points="403.988292 209.907492 444.267014 233.162423 444.267014 279.672284 403.988292 302.927215 363.70957 279.672284 363.70957 233.162423"></polygon>
                <polygon id="Polygon-Copy-69" opacity="0.05" points="524.267014 280.189061 564.545735 303.443991 564.545735 349.953853 524.267014 373.208784 483.988292 349.953853 483.988292 303.443991"></polygon>
            </g>
            <g id="Group-Copy-3" transform="translate(1221.405951, 326.500000) scale(-1, -1) translate(-1221.405951, -326.500000) translate(918.905951, 0.000000)">
                <polygon id="Polygon-Copy-32" points="80.8184086 209.467913 121.09713 232.722844 121.09713 279.232706 80.8184086 302.487637 40.5396868 279.232706 40.5396868 232.722844"></polygon>
                <polygon id="Polygon-Copy-34" points="161.697477 209.467913 201.976198 232.722844 201.976198 279.232706 161.697477 302.487637 121.418755 279.232706 121.418755 232.722844"></polygon>
                <polygon id="Polygon-Copy-17" points="121.519917 0.250732767 161.798639 23.5056636 161.798639 70.0155254 121.519917 93.2704563 81.2411952 70.0155254 81.2411952 23.5056636"></polygon>
                <polygon id="Polygon-Copy-35" points="121.519917 419.718646 161.798639 442.973577 161.798639 489.483438 121.519917 512.738369 81.2411952 489.483438 81.2411952 442.973577"></polygon>
                <polygon id="Polygon-Copy-36" points="121.237598 279.155508 161.51632 302.410439 161.51632 348.920301 121.237598 372.175232 80.9588762 348.920301 80.9588762 302.410439"></polygon>
                <polygon id="Polygon-Copy-18" points="81.0600384 69.9383278 121.33876 93.1932587 121.33876 139.70312 81.0600384 162.958051 40.7813166 139.70312 40.7813166 93.1932587"></polygon>
                <polygon id="Polygon-Copy-37" points="81.0600384 489.406241 121.33876 512.661172 121.33876 559.171033 81.0600384 582.425964 40.7813166 559.171033 40.7813166 512.661172"></polygon>
                <polygon id="Polygon-Copy-38" opacity="0.6" points="161.697477 349.437077 201.976198 372.692008 201.976198 419.20187 161.697477 442.4568 121.418755 419.20187 121.418755 372.692008"></polygon>
                <polygon id="Polygon-Copy-19" points="121.519917 140.219897 161.798639 163.474828 161.798639 209.984689 121.519917 233.23962 81.2411952 209.984689 81.2411952 163.474828"></polygon>
                <polygon id="Polygon-Copy-39" points="121.519917 559.68781 161.798639 582.942741 161.798639 629.452602 121.519917 652.707533 81.2411952 629.452602 81.2411952 582.942741"></polygon>
                <polygon id="Polygon-Copy-40" points="242.31457 209.467913 282.593292 232.722844 282.593292 279.232706 242.31457 302.487637 202.035849 279.232706 202.035849 232.722844"></polygon>
                <polygon id="Polygon-Copy-41" opacity="0.6" points="202.137011 419.718646 242.415733 442.973577 242.415733 489.483438 202.137011 512.738369 161.858289 489.483438 161.858289 442.973577"></polygon>
                <polygon id="Polygon-Copy-42" opacity="0.6" points="201.854692 279.155508 242.133414 302.410439 242.133414 348.920301 201.854692 372.175232 161.57597 348.920301 161.57597 302.410439"></polygon>
                <polygon id="Polygon-Copy-21" opacity="0.6" points="161.677132 69.9383278 201.955854 93.1932587 201.955854 139.70312 161.677132 162.958051 121.39841 139.70312 121.39841 93.1932587"></polygon>
                <polygon id="Polygon-Copy-43" points="161.677132 489.406241 201.955854 512.661172 201.955854 559.171033 161.677132 582.425964 121.39841 559.171033 121.39841 512.661172"></polygon>
                <polygon id="Polygon-Copy-44" points="242.31457 349.437077 282.593292 372.692008 282.593292 419.20187 242.31457 442.4568 202.035849 419.20187 202.035849 372.692008"></polygon>
                <polygon id="Polygon-Copy-22" opacity="0.6" points="202.137011 140.219897 242.415733 163.474828 242.415733 209.984689 202.137011 233.23962 161.858289 209.984689 161.858289 163.474828"></polygon>
                <polygon id="Polygon-Copy-47" opacity="0.4" points="282.754104 419.718646 323.032826 442.973577 323.032826 489.483438 282.754104 512.738369 242.475383 489.483438 242.475383 442.973577"></polygon>
                <polygon id="Polygon-Copy-48" points="282.471785 279.155508 322.750507 302.410439 322.750507 348.920301 282.471785 372.175232 242.193064 348.920301 242.193064 302.410439"></polygon>
                <polygon id="Polygon-Copy-50" opacity="0.4" points="322.931664 349.437077 363.210386 372.692008 363.210386 419.20187 322.931664 442.4568 282.652942 419.20187 282.652942 372.692008"></polygon>
                <polygon id="Polygon-Copy-25" opacity="0.4" points="282.754104 140.219897 323.032826 163.474828 323.032826 209.984689 282.754104 233.23962 242.475383 209.984689 242.475383 163.474828"></polygon>
                <polygon id="Polygon-Copy-54" opacity="0.4" points="363.088879 279.155508 403.367601 302.410439 403.367601 348.920301 363.088879 372.175232 322.810157 348.920301 322.810157 302.410439"></polygon>
                <polygon id="Polygon-Copy-58" opacity="0.4" points="323.092476 209.907492 363.371198 233.162423 363.371198 279.672284 323.092476 302.927215 282.813755 279.672284 282.813755 233.162423"></polygon>
                <polygon id="Polygon-Copy-60" opacity="0.4" points="363.70957 140.219897 403.988292 163.474828 403.988292 209.984689 363.70957 233.23962 323.430848 209.984689 323.430848 163.474828"></polygon>
                <polygon id="Polygon-Copy-61" opacity="0.4" points="201.795042 0.250732767 242.073763 23.5056636 242.073763 70.0155254 201.795042 93.2704563 161.51632 70.0155254 161.51632 23.5056636"></polygon>
                <polygon id="Polygon-Copy-56" opacity="0.3" points="403.548758 349.437077 443.82748 372.692008 443.82748 419.20187 403.548758 442.4568 363.270036 419.20187 363.270036 372.692008"></polygon>
                <polygon id="Polygon-Copy-66" opacity="0.1" points="243.430848 69.9383278 283.70957 93.1932587 283.70957 139.70312 243.430848 162.958051 203.152126 139.70312 203.152126 93.1932587"></polygon>
                <polygon id="Polygon-Copy-70" opacity="0.05" points="564.267014 209.907492 604.545735 233.162423 604.545735 279.672284 564.267014 302.927215 523.988292 279.672284 523.988292 233.162423"></polygon>
                <polygon id="Polygon-Copy-65" opacity="0.05" points="444.267014 140.219897 484.545735 163.474828 484.545735 209.984689 444.267014 233.23962 403.988292 209.984689 403.988292 163.474828"></polygon>
                <polygon id="Polygon-Copy-72" opacity="0.05" points="403.988292 69.9383278 444.267014 93.1932587 444.267014 139.70312 403.988292 162.958051 363.70957 139.70312 363.70957 93.1932587"></polygon>
                <polygon id="Polygon-Copy-74" opacity="0.05" points="323.430848 69.9383278 363.70957 93.1932587 363.70957 139.70312 323.430848 162.958051 283.152126 139.70312 283.152126 93.1932587"></polygon>
                <polygon id="Polygon-Copy-75" opacity="0.05" points="282.352485 0.250732767 322.631207 23.5056636 322.631207 70.0155254 282.352485 93.2704563 242.073763 70.0155254 242.073763 23.5056636"></polygon>
                <polygon id="Polygon-Copy-67" opacity="0.2" points="483.988292 209.907492 524.267014 233.162423 524.267014 279.672284 483.988292 302.927215 443.70957 279.672284 443.70957 233.162423"></polygon>
                <polygon id="Polygon-Copy-68" opacity="0.1" points="444.267014 280.189061 484.545735 303.443991 484.545735 349.953853 444.267014 373.208784 403.988292 349.953853 403.988292 303.443991"></polygon>
                <polygon id="Polygon-Copy-71" opacity="0.1" points="403.988292 209.907492 444.267014 233.162423 444.267014 279.672284 403.988292 302.927215 363.70957 279.672284 363.70957 233.162423"></polygon>
                <polygon id="Polygon-Copy-69" opacity="0.05" points="524.267014 280.189061 564.545735 303.443991 564.545735 349.953853 524.267014 373.208784 483.988292 349.953853 483.988292 303.443991"></polygon>
            </g>
        </g>
    </g>
</svg>